<svg id="Layer_1" enable-background="new 0 0 512 512" height="512" viewBox="0 0 512 512" width="512" xmlns="http://www.w3.org/2000/svg"><g><path d="m167.5 149c-8.271 0-15 6.729-15 15s6.729 15.001 15 15.001 15.001-6.729 15.001-15.001-6.73-15-15.001-15z"/><path d="m256 0c-141.159 0-256 114.841-256 256s114.841 256 256 256 256-114.841 256-256-114.841-256-256-256zm-88.5 209.001c-24.813 0-45-20.188-45-45.001s20.187-45 45-45 45.001 20.187 45.001 45-20.188 45.001-45.001 45.001zm198.498 20c8.284 0 15 6.716 15 15s-6.716 15-15 15h-84.998v116.999c0 8.284-6.716 15-15 15s-15-6.716-15-15v-234.999c0-8.284 6.716-15 15-15h100c8.284 0 15 6.716 15 15s-6.716 15-15 15h-85v73z"/></g></svg>